0
SECTION
2
ENTITIES
0
LINE
8
OUTLINE
10
0
20
0
11
240
21
0
0
LINE
8
OUTLINE
10
240
20
0
11
240
21
60
0
LINE
8
OUTLINE
10
240
20
60
11
0
21
60
0
LINE
8
OUTLINE
10
0
20
60
11
0
21
0
0
CIRCLE
8
M2_TAP_PILOT
10
19.0
20
29.0
40
0.8
0
CIRCLE
8
M2_TAP_PILOT
10
41.0
20
29.0
40
0.8
0
CIRCLE
8
M2_TAP_PILOT
10
55.0
20
29.0
40
0.8
0
CIRCLE
8
M2_TAP_PILOT
10
77.0
20
29.0
40
0.8
0
CIRCLE
8
M2_TAP_PILOT
10
91.0
20
29.0
40
0.8
0
CIRCLE
8
M2_TAP_PILOT
10
113.0
20
29.0
40
0.8
0
CIRCLE
8
M2_TAP_PILOT
10
127.03302
20
29.0
40
0.8
0
CIRCLE
8
M2_TAP_PILOT
10
149.03302
20
29.0
40
0.8
0
CIRCLE
8
M2_TAP_PILOT
10
163.03302
20
29.086360000000013
40
0.8
0
CIRCLE
8
M2_TAP_PILOT
10
185.03302
20
29.086360000000013
40
0.8
0
CIRCLE
8
M2_TAP_PILOT
10
199.03302000000002
20
29.086360000000013
40
0.8
0
CIRCLE
8
M2_TAP_PILOT
10
221.03302000000002
20
29.086360000000013
40
0.8
0
CIRCLE
8
M3_TAP_PILOT
10
48.0
20
9.0
40
1.25
0
CIRCLE
8
M3_TAP_PILOT
10
192.0
20
9.0
40
1.25
0
CIRCLE
8
M3_TAP_PILOT
10
48.0
20
49.0
40
1.25
0
CIRCLE
8
M3_TAP_PILOT
10
192.0
20
49.0
40
1.25
0
ENDSEC
0
EOF
