0
SECTION
2
ENTITIES
0
CIRCLE
8
SOCKET_GUIDE
10
25.134603169291495
20
36.485458984359724
30
0
40
0.82
0
CIRCLE
8
SOCKET_GUIDE
10
29.889794953178466
20
19.87393075493864
30
0
40
0.82
0
CIRCLE
8
SOCKET_GUIDE
10
22.480016437560295
20
33.86117300525672
30
0
40
0.82
0
CIRCLE
8
SOCKET_GUIDE
10
21.334228720399807
20
26.435344528702444
30
0
40
0.82
0
CIRCLE
8
SOCKET_GUIDE
10
35.79465044715511
20
22.099708332158343
30
0
40
0.82
0
CIRCLE
8
SOCKET_GUIDE
10
23.16892506907098
20
23.094418117574435
30
0
40
0.82
0
CIRCLE
8
SOCKET_GUIDE
10
38.15321185559279
20
25.13942347582369
30
0
40
0.82
0
CIRCLE
8
SOCKET_GUIDE
10
32.559316235100795
20
37.5319558573606
30
0
40
0.82
0
CIRCLE
8
SOCKET_GUIDE
10
38.97456618769748
20
28.909835302711144
30
0
40
0.82
0
CIRCLE
8
SOCKET_GUIDE
10
35.93010424936
20
35.65261735317179
30
0
40
0.82
0
CIRCLE
8
SOCKET_GUIDE
10
26.1677200523432
20
20.827629768764297
30
0
40
0.82
0
CIRCLE
8
SOCKET_GUIDE
10
21.03681324234475
20
30.248220668549294
30
0
40
0.82
0
CIRCLE
8
SOCKET_GUIDE
10
38.18239719747602
20
32.61058077681923
30
0
40
0.82
0
CIRCLE
8
SOCKET_GUIDE
10
28.722869439361133
20
37.774897459929775
30
0
40
0.82
0
CIRCLE
8
SOCKET_GUIDE
10
61.134603169291495
20
36.485458984359724
30
0
40
0.82
0
CIRCLE
8
SOCKET_GUIDE
10
65.88979495317847
20
19.87393075493864
30
0
40
0.82
0
CIRCLE
8
SOCKET_GUIDE
10
58.480016437560295
20
33.86117300525672
30
0
40
0.82
0
CIRCLE
8
SOCKET_GUIDE
10
57.33422872039981
20
26.435344528702444
30
0
40
0.82
0
CIRCLE
8
SOCKET_GUIDE
10
71.7946504471551
20
22.099708332158343
30
0
40
0.82
0
CIRCLE
8
SOCKET_GUIDE
10
59.16892506907098
20
23.094418117574435
30
0
40
0.82
0
CIRCLE
8
SOCKET_GUIDE
10
74.15321185559279
20
25.13942347582369
30
0
40
0.82
0
CIRCLE
8
SOCKET_GUIDE
10
68.5593162351008
20
37.5319558573606
30
0
40
0.82
0
CIRCLE
8
SOCKET_GUIDE
10
74.97456618769749
20
28.909835302711144
30
0
40
0.82
0
CIRCLE
8
SOCKET_GUIDE
10
71.93010424935997
20
35.65261735317179
30
0
40
0.82
0
CIRCLE
8
SOCKET_GUIDE
10
62.1677200523432
20
20.827629768764297
30
0
40
0.82
0
CIRCLE
8
SOCKET_GUIDE
10
57.03681324234475
20
30.248220668549294
30
0
40
0.82
0
CIRCLE
8
SOCKET_GUIDE
10
74.182397197476
20
32.61058077681923
30
0
40
0.82
0
CIRCLE
8
SOCKET_GUIDE
10
64.72286943936113
20
37.774897459929775
30
0
40
0.82
0
CIRCLE
8
SOCKET_GUIDE
10
97.1346031692915
20
36.485458984359724
30
0
40
0.82
0
CIRCLE
8
SOCKET_GUIDE
10
101.88979495317847
20
19.87393075493864
30
0
40
0.82
0
CIRCLE
8
SOCKET_GUIDE
10
94.4800164375603
20
33.86117300525672
30
0
40
0.82
0
CIRCLE
8
SOCKET_GUIDE
10
93.33422872039984
20
26.435344528702444
30
0
40
0.82
0
CIRCLE
8
SOCKET_GUIDE
10
107.7946504471551
20
22.099708332158343
30
0
40
0.82
0
CIRCLE
8
SOCKET_GUIDE
10
95.16892506907098
20
23.094418117574435
30
0
40
0.82
0
CIRCLE
8
SOCKET_GUIDE
10
110.15321185559279
20
25.13942347582369
30
0
40
0.82
0
CIRCLE
8
SOCKET_GUIDE
10
104.5593162351008
20
37.5319558573606
30
0
40
0.82
0
CIRCLE
8
SOCKET_GUIDE
10
110.97456618769749
20
28.909835302711144
30
0
40
0.82
0
CIRCLE
8
SOCKET_GUIDE
10
107.93010424935997
20
35.65261735317179
30
0
40
0.82
0
CIRCLE
8
SOCKET_GUIDE
10
98.16772005234318
20
20.827629768764297
30
0
40
0.82
0
CIRCLE
8
SOCKET_GUIDE
10
93.03681324234478
20
30.248220668549294
30
0
40
0.82
0
CIRCLE
8
SOCKET_GUIDE
10
110.182397197476
20
32.61058077681923
30
0
40
0.82
0
CIRCLE
8
SOCKET_GUIDE
10
100.72286943936115
20
37.774897459929775
30
0
40
0.82
0
CIRCLE
8
SOCKET_GUIDE
10
133.1676231692915
20
36.485458984359724
30
0
40
0.82
0
CIRCLE
8
SOCKET_GUIDE
10
137.92281495317846
20
19.87393075493864
30
0
40
0.82
0
CIRCLE
8
SOCKET_GUIDE
10
130.5130364375603
20
33.86117300525672
30
0
40
0.82
0
CIRCLE
8
SOCKET_GUIDE
10
129.36724872039983
20
26.435344528702444
30
0
40
0.82
0
CIRCLE
8
SOCKET_GUIDE
10
143.8276704471551
20
22.099708332158343
30
0
40
0.82
0
CIRCLE
8
SOCKET_GUIDE
10
131.20194506907097
20
23.094418117574435
30
0
40
0.82
0
CIRCLE
8
SOCKET_GUIDE
10
146.18623185559278
20
25.13942347582369
30
0
40
0.82
0
CIRCLE
8
SOCKET_GUIDE
10
140.5923362351008
20
37.5319558573606
30
0
40
0.82
0
CIRCLE
8
SOCKET_GUIDE
10
147.00758618769748
20
28.909835302711144
30
0
40
0.82
0
CIRCLE
8
SOCKET_GUIDE
10
143.96312424935996
20
35.65261735317179
30
0
40
0.82
0
CIRCLE
8
SOCKET_GUIDE
10
134.20074005234318
20
20.827629768764297
30
0
40
0.82
0
CIRCLE
8
SOCKET_GUIDE
10
129.06983324234477
20
30.248220668549294
30
0
40
0.82
0
CIRCLE
8
SOCKET_GUIDE
10
146.215417197476
20
32.61058077681923
30
0
40
0.82
0
CIRCLE
8
SOCKET_GUIDE
10
136.75588943936114
20
37.774897459929775
30
0
40
0.82
0
CIRCLE
8
SOCKET_GUIDE
10
169.1676231692915
20
36.57181898435974
30
0
40
0.82
0
CIRCLE
8
SOCKET_GUIDE
10
173.92281495317846
20
19.960290754938654
30
0
40
0.82
0
CIRCLE
8
SOCKET_GUIDE
10
166.5130364375603
20
33.94753300525673
30
0
40
0.82
0
CIRCLE
8
SOCKET_GUIDE
10
165.36724872039983
20
26.521704528702458
30
0
40
0.82
0
CIRCLE
8
SOCKET_GUIDE
10
179.8276704471551
20
22.186068332158356
30
0
40
0.82
0
CIRCLE
8
SOCKET_GUIDE
10
167.20194506907097
20
23.180778117574448
30
0
40
0.82
0
CIRCLE
8
SOCKET_GUIDE
10
182.18623185559278
20
25.225783475823704
30
0
40
0.82
0
CIRCLE
8
SOCKET_GUIDE
10
176.5923362351008
20
37.618315857360614
30
0
40
0.82
0
CIRCLE
8
SOCKET_GUIDE
10
183.00758618769748
20
28.996195302711158
30
0
40
0.82
0
CIRCLE
8
SOCKET_GUIDE
10
179.96312424935996
20
35.738977353171805
30
0
40
0.82
0
CIRCLE
8
SOCKET_GUIDE
10
170.20074005234318
20
20.91398976876431
30
0
40
0.82
0
CIRCLE
8
SOCKET_GUIDE
10
165.06983324234477
20
30.334580668549307
30
0
40
0.82
0
CIRCLE
8
SOCKET_GUIDE
10
182.215417197476
20
32.69694077681925
30
0
40
0.82
0
CIRCLE
8
SOCKET_GUIDE
10
172.75588943936114
20
37.86125745992979
30
0
40
0.82
0
CIRCLE
8
SOCKET_GUIDE
10
205.16762316929146
20
36.57181898435974
30
0
40
0.82
0
CIRCLE
8
SOCKET_GUIDE
10
209.92281495317854
20
19.960290754938654
30
0
40
0.82
0
CIRCLE
8
SOCKET_GUIDE
10
202.5130364375603
20
33.94753300525673
30
0
40
0.82
0
CIRCLE
8
SOCKET_GUIDE
10
201.36724872039986
20
26.521704528702458
30
0
40
0.82
0
CIRCLE
8
SOCKET_GUIDE
10
215.82767044715513
20
22.186068332158356
30
0
40
0.82
0
CIRCLE
8
SOCKET_GUIDE
10
203.20194506907103
20
23.180778117574448
30
0
40
0.82
0
CIRCLE
8
SOCKET_GUIDE
10
218.18623185559278
20
25.225783475823704
30
0
40
0.82
0
CIRCLE
8
SOCKET_GUIDE
10
212.5923362351008
20
37.618315857360614
30
0
40
0.82
0
CIRCLE
8
SOCKET_GUIDE
10
219.00758618769748
20
28.996195302711158
30
0
40
0.82
0
CIRCLE
8
SOCKET_GUIDE
10
215.96312424936002
20
35.738977353171805
30
0
40
0.82
0
CIRCLE
8
SOCKET_GUIDE
10
206.20074005234318
20
20.91398976876431
30
0
40
0.82
0
CIRCLE
8
SOCKET_GUIDE
10
201.06983324234477
20
30.334580668549307
30
0
40
0.82
0
CIRCLE
8
SOCKET_GUIDE
10
218.21541719747609
20
32.69694077681925
30
0
40
0.82
0
CIRCLE
8
SOCKET_GUIDE
10
208.75588943936117
20
37.86125745992979
30
0
40
0.82
0
CIRCLE
8
GUIDE_OUTLINE
10
30.0
20
29.0
30
0
40
13
0
CIRCLE
8
GUIDE_OUTLINE
10
66.0
20
29.0
30
0
40
13
0
CIRCLE
8
GUIDE_OUTLINE
10
102.0
20
29.0
30
0
40
13
0
CIRCLE
8
GUIDE_OUTLINE
10
138.03302
20
29.0
30
0
40
13
0
CIRCLE
8
GUIDE_OUTLINE
10
174.03302
20
29.086360000000013
30
0
40
13
0
CIRCLE
8
GUIDE_OUTLINE
10
210.03302000000002
20
29.086360000000013
30
0
40
13
0
CIRCLE
8
M2_CLEARANCE
10
19.0
20
29.0
30
0
40
1.1
0
CIRCLE
8
M2_CLEARANCE
10
41.0
20
29.0
30
0
40
1.1
0
CIRCLE
8
M2_CLEARANCE
10
55.0
20
29.0
30
0
40
1.1
0
CIRCLE
8
M2_CLEARANCE
10
77.0
20
29.0
30
0
40
1.1
0
CIRCLE
8
M2_CLEARANCE
10
91.0
20
29.0
30
0
40
1.1
0
CIRCLE
8
M2_CLEARANCE
10
113.0
20
29.0
30
0
40
1.1
0
CIRCLE
8
M2_CLEARANCE
10
127.03302
20
29.0
30
0
40
1.1
0
CIRCLE
8
M2_CLEARANCE
10
149.03302
20
29.0
30
0
40
1.1
0
CIRCLE
8
M2_CLEARANCE
10
163.03302
20
29.086360000000013
30
0
40
1.1
0
CIRCLE
8
M2_CLEARANCE
10
185.03302
20
29.086360000000013
30
0
40
1.1
0
CIRCLE
8
M2_CLEARANCE
10
199.03302000000002
20
29.086360000000013
30
0
40
1.1
0
CIRCLE
8
M2_CLEARANCE
10
221.03302000000002
20
29.086360000000013
30
0
40
1.1
0
ENDSEC
0
EOF
